# xmcd
#
# Track frame offsets:
#	150
#	18665
#	38708
#	53994
#	73926
#	92624
#	109000
#	127254
#	142321
#	157390
#	179193
#	195797
#	206983
#	227050
#	244637
#
# Disc length: 3502 seconds
#
# Revision: 6
# Processed by: cddbd v1.5.2PL0 Copyright (c) Steve Scherf et al.
# Submitted via: EZCDAudioConverter 2.0.7.1
#
DISCID=ea0dac0f
DTITLE=Various Artist - Super 10 CD Fête 05 Funk
DYEAR=2013
DGENRE=Funk
TTITLE0=Fat Larry's Band - Act Like You Know
TTITLE1=Delegation - Darlin'
TTITLE2=B.B. and Q. Band - On The Beat
TTITLE3=Traks - Long Train Running
TTITLE4=Mc Miker G - Celebration Rap
TTITLE5=Delight - Is It Too Late
TTITLE6=Kool and The Gang - (Jump On The) Rhythm And Ride
TTITLE7=Lyn Collins - Think (About It)
TTITLE8=Rufus Thomas - Do The Funky Chicken
TTITLE9=Wild Cherry - Play That Funky Music
TTITLE10=Vivian Reed - As Long As I'm Around
TTITLE11=Jimmy Bo Horne - Dance Across The Floor
TTITLE12=Black Machine - How Gee
TTITLE13=Stretch - Why Did You Do It ?
TTITLE14=Odyssey - Going Back To My Roots
EXTD=
EXTT0=
EXTT1=
EXTT2=
EXTT3=
EXTT4=
EXTT5=
EXTT6=
EXTT7=
EXTT8=
EXTT9=
EXTT10=
EXTT11=
EXTT12=
EXTT13=
EXTT14=
PLAYORDER=
